<?xml version="1.0" encoding="UTF-8" standalone="no"?>
<svg xmlns:rdf="http://www.w3.org/1999/02/22-rdf-syntax-ns#" xmlns="http://www.w3.org/2000/svg" height="35" width="35" version="1.1" xmlns:cc="http://creativecommons.org/ns#" xmlns:dc="http://purl.org/dc/elements/1.1/" viewBox="0 0 35 35">
<g transform="translate(-243 -277)">
<g transform="translate(.751 1.18)">
<path style="fill:#333;fill-rule:evenodd" d="m260 278a4 13 0 0 0 -2.67 3.37 10 10 0 0 0 -2.07 0.842 13 4 45 0 0 -4.33 -0.516 13 4 45 0 0 0.471 4.23 10 10 0 0 0 -1.02 2.4 13 4 0 0 0 -3.38 2.68 13 4 0 0 0 3.37 2.67 10 10 0 0 0 0.965 2.29 4 13 45 0 0 -0.404 4.12 4 13 45 0 0 4.11 -0.406 10 10 0 0 0 2.29 0.955 4 13 0 0 0 2.68 3.38 4 13 0 0 0 2.67 -3.36 10 10 0 0 0 2.4 -1.03 13 4 45 0 0 4.24 0.471 13 4 45 0 0 -0.516 -4.32 10 10 0 0 0 0.828 -2.07 13 4 0 0 0 3.38 -2.68 13 4 0 0 0 -3.37 -2.67 10 10 0 0 0 -0.904 -2.18 4 13 45 0 0 0.58 -4.46 4 13 45 0 0 -4.45 0.576 10 10 0 0 0 -2.18 -0.889 4 13 0 0 0 -3 -3zm0 8a5 5 0 0 1 5 5 5 5 0 0 1 -5 5 5 5 0 0 1 -5 -5 5 5 0 0 1 5 -5z"/>
<path style="fill:#fff;fill-rule:evenodd" d="m260 281a4 13 0 0 0 -2.67 3.37 10 10 0 0 0 -2.07 0.842 13 4 45 0 0 -4.33 -0.516 13 4 45 0 0 0.471 4.23 10 10 0 0 0 -1.02 2.4 13 4 0 0 0 -3.38 2.68 13 4 0 0 0 3.37 2.67 10 10 0 0 0 0.965 2.29 4 13 45 0 0 -0.404 4.12 4 13 45 0 0 4.11 -0.406 10 10 0 0 0 2.29 0.955 4 13 0 0 0 2.68 3.38 4 13 0 0 0 2.67 -3.36 10 10 0 0 0 2.4 -1.03 13 4 45 0 0 4.24 0.471 13 4 45 0 0 -0.516 -4.32 10 10 0 0 0 0.828 -2.07 13 4 0 0 0 3.38 -2.68 13 4 0 0 0 -3.37 -2.67 10 10 0 0 0 -0.904 -2.18 4 13 45 0 0 0.58 -4.46 4 13 45 0 0 -4.45 0.576 10 10 0 0 0 -2.18 -0.889 4 13 0 0 0 -3 -3zm0 8a5 5 0 0 1 5 5 5 5 0 0 1 -5 5 5 5 0 0 1 -5 -5 5 5 0 0 1 5 -5z"/>
<path style="fill:#999;fill-rule:evenodd" d="m260 279a4 13 0 0 0 -2.67 3.37 10 10 0 0 0 -2.07 0.842 13 4 45 0 0 -4.33 -0.516 13 4 45 0 0 0.471 4.23 10 10 0 0 0 -1.02 2.4 13 4 0 0 0 -3.38 2.68 13 4 0 0 0 3.37 2.67 10 10 0 0 0 0.965 2.29 4 13 45 0 0 -0.404 4.12 4 13 45 0 0 4.11 -0.406 10 10 0 0 0 2.29 0.955 4 13 0 0 0 2.68 3.38 4 13 0 0 0 2.67 -3.36 10 10 0 0 0 2.4 -1.03 13 4 45 0 0 4.24 0.471 13 4 45 0 0 -0.516 -4.32 10 10 0 0 0 0.828 -2.07 13 4 0 0 0 3.38 -2.68 13 4 0 0 0 -3.37 -2.67 10 10 0 0 0 -0.904 -2.18 4 13 45 0 0 0.58 -4.46 4 13 45 0 0 -4.45 0.576 10 10 0 0 0 -2.18 -0.889 4 13 0 0 0 -3 -3zm0 8a5 5 0 0 1 5 5 5 5 0 0 1 -5 5 5 5 0 0 1 -5 -5 5 5 0 0 1 5 -5z"/>
</g>
</g>
</svg>
