<svg width="35" height="35" version="1.1" viewBox="0 0 35 35" xmlns="http://www.w3.org/2000/svg">
 <g transform="translate(-269 -244)">
  <g transform="matrix(.8 0 0 .8 210 289)" fill="#fff">
   <path d="m86.6-31.7c-3.14 3.54-3.5 7.5-2.31 10.1 0.769 1.68 1.86 2.68 3.13 3.28 1.18 0.546 2.56 0.65 3.95 0.672 0.0548 0 0.0953 0.0715 0.148 0.0715h9.97c1.45 0 2.92-0.298 4.17-0.965 1.26-0.667 2.29-1.71 2.83-3.28 0.798-2.3 0.417-6.02-2.61-9.6-2.23 2.79-5.6 4.61-9.45 4.61-4 0-7.58-1.93-9.83-4.91h-0.0048z"/>
   <path d="m96.4-47.6c-4.5 0-8.56 3.99-8.56 8.49-0.0048 4.5 4.06 8.56 8.55 8.56 4.5 0 8.49-4.06 8.49-8.56 5e-3 -4.5-3.99-8.49-8.48-8.49z"/>
  </g>
  <g transform="matrix(.8 0 0 .8 210 286)" fill="#333">
   <path d="m86.6-31.7c-3.14 3.54-3.5 7.5-2.31 10.1 0.769 1.68 1.86 2.68 3.13 3.28 1.18 0.546 2.56 0.65 3.95 0.672 0.0548 0 0.0953 0.0715 0.148 0.0715h9.97c1.45 0 2.92-0.298 4.17-0.965 1.26-0.667 2.29-1.71 2.83-3.28 0.798-2.3 0.417-6.02-2.61-9.6-2.23 2.79-5.6 4.61-9.45 4.61-4 0-7.58-1.93-9.83-4.91h-0.0048z"/>
   <path d="m96.4-47.6c-4.5 0-8.56 3.99-8.56 8.49-0.0048 4.5 4.06 8.56 8.55 8.56 4.5 0 8.49-4.06 8.49-8.56 5e-3 -4.5-3.99-8.49-8.48-8.49z"/>
  </g>
  <g transform="matrix(.8 0 0 .8 210 287)" fill="#999">
   <path d="m86.6-31.7c-3.14 3.54-3.5 7.5-2.31 10.1 0.769 1.68 1.86 2.68 3.13 3.28 1.18 0.546 2.56 0.65 3.95 0.672 0.0548 0 0.0953 0.0715 0.148 0.0715h9.97c1.45 0 2.92-0.298 4.17-0.965 1.26-0.667 2.29-1.71 2.83-3.28 0.798-2.3 0.417-6.02-2.61-9.6-2.23 2.79-5.6 4.61-9.45 4.61-4 0-7.58-1.93-9.83-4.91h-0.0048z"/>
   <path d="m96.4-47.6c-4.5 0-8.56 3.99-8.56 8.49-0.0048 4.5 4.06 8.56 8.55 8.56 4.5 0 8.49-4.06 8.49-8.56 5e-3 -4.5-3.99-8.49-8.48-8.49z"/>
  </g>
 </g>
</svg>
